<?xml version="1.0" standalone="no"?>
<!DOCTYPE svg PUBLIC "-//W3C//DTD SVG 20010904//EN"
 "http://www.w3.org/TR/2001/REC-SVG-20010904/DTD/svg10.dtd">
<svg version="1.0" xmlns="http://www.w3.org/2000/svg"
 width="700.000000pt" height="700.000000pt" viewBox="0 0 700.000000 700.000000"
 preserveAspectRatio="xMidYMid meet">
<metadata>
Created by potrace 1.11, written by Peter Selinger 2001-2013
</metadata>
<g transform="translate(0.000000,700.000000) scale(0.100000,-0.100000)"
fill="#000000" stroke="none">
<path d="M4348 6658 c-2 -7 -4 -86 -4 -174 l1 -162 -1390 0 c-764 -1 -1404 -3
-1420 -5 -105 -16 -184 -57 -261 -134 -106 -106 -132 -192 -134 -456 -4 -354
-8 -967 -10 -1430 l-3 -467 39 -58 c22 -31 41 -61 43 -67 8 -19 226 -340 233
-343 5 -2 8 -8 8 -14 0 -6 22 -41 50 -79 27 -38 50 -71 50 -74 0 -6 39 -64 50
-75 3 -3 70 -102 149 -220 80 -118 183 -271 230 -340 46 -69 116 -172 154
-230 39 -58 77 -111 85 -117 9 -7 13 -13 10 -13 -5 0 260 -399 289 -435 4 -5
32 -47 62 -93 29 -45 57 -82 62 -82 5 0 9 -5 9 -11 0 -6 19 -39 42 -73 23 -33
74 -108 113 -166 39 -58 134 -197 210 -310 76 -113 151 -221 167 -241 15 -20
28 -40 28 -43 0 -3 19 -34 43 -69 24 -34 68 -98 98 -142 30 -44 56 -82 59 -85
3 -3 25 -35 49 -71 l44 -67 68 102 c88 130 79 117 151 221 92 132 221 323 233
343 6 9 12 19 15 22 3 3 19 25 35 50 16 25 32 47 35 50 3 3 40 57 83 120 42
63 117 174 166 245 49 72 134 195 188 275 54 80 100 147 103 150 4 3 17 23 30
45 14 22 30 47 37 55 7 8 78 112 159 230 217 318 331 485 392 575 30 44 75
108 98 142 24 35 44 67 44 72 0 5 4 11 8 13 5 2 42 53 83 113 41 61 76 112 79
115 3 3 21 30 42 60 20 30 94 138 163 240 l127 185 3 80 c15 389 31 2070 20
2130 -25 141 -122 270 -249 330 -66 31 -142 46 -249 47 l-83 2 0 170 1 171
-467 3 c-367 2 -467 0 -470 -10z"/>
</g>
</svg>
